<svg height="130" viewBox="0 0 130 130" width="130" xmlns="http://www.w3.org/2000/svg"><path d="m361.400474 76.3437502c11.831321-.002163 22.498756 7.1234735 27.027406 18.053775 4.52865 10.9303018 2.026521 23.5123608-6.339486 31.8783688-8.366008 8.366007-20.948068 10.868137-31.878369 6.339487-10.930302-4.52865-18.055938-15.196086-18.053775-27.027407.02063-16.1425858 13.101638-29.2235938 29.244224-29.2442238m-.399524-35.34375c-26.290148 0-49.991498 15.8370885-60.051803 40.1262248-10.060304 24.289136-4.498282 52.246806 14.092423 70.835983 18.590706 18.589178 46.548832 24.148903 70.837141 14.086601 24.288309-10.062301 40.12345-33.764952 40.121289-60.0551 0-17.2383289-6.848265-33.7705425-19.038105-45.9593808s-28.722616-19.0357446-45.960945-19.034328z" fill="#28e0ae" transform="translate(-296 -41)"/></svg>