<svg height="130" viewBox="0 0 130 130" width="130" xmlns="http://www.w3.org/2000/svg"><path d="m141 76.8955224c16.073959 0 29.104478 13.0305185 29.104478 29.1044776 0 16.073959-13.030519 29.104478-29.104478 29.104478s-29.104478-13.030519-29.104478-29.104478c.014673-16.0678777 13.0366-29.0898051 29.104478-29.1044776m.006291-35.8955224c-26.290147-.0021606-49.9927991 15.8329795-60.0551003 40.1212887-10.0623011 24.2883093-4.5025769 52.2464353 14.0866011 70.8371413 18.5891782 18.590705 46.5468472 24.152727 70.8359832 14.092423 24.289137-10.060305 40.126225-33.761655 40.126225-60.051803 0-35.8958981-29.09781-64.9961-64.993709-64.99905z" fill="#9c5ad3" transform="translate(-76 -41)"/></svg>